PathFileType	4	(X/Y/Z)	C:\Users\Biomechanik\SynologyDrive\AlexP\Athlete_03\Athlete_3_25_03_31\Walking_01\marker_experimental.trc
DataRate	CameraRate	NumFrames	NumMarkers	Units	OrigDataRate	OrigDataStartFrame	OrigNumFrames
200.000000	200.000000	4	53	mm	200.000000	59	239
Frame#	Time	GLAB			RFHD			LFHD			C7			T6			SPINMOL			SPINM2			SPINM3			T12			BELTOL			BELT2			BELT3			SACROL			SACR2			SACR3			LTHOL			LTH2			LTH3			LSHAOL			LSHA2			LSHA3			LHEE			LTOE			LM5			RTHOL			RTH2			RTH3			RSHAOL			RSHA2			RSHA3			RHEE			RTOE			RM5			STRN			XIPH			LACR			LUAOL			LUA2			LUA3			LLAOL			LLA2			LLA3			LWRR			LWRU			RACR			RUAOL			RUA2			RUA3			RLAOL			RLA2			RLA3			RWRR			RWRU			
		X1	Y1	Z1	X2	Y2	Z2	X3	Y3	Z3	X4	Y4	Z4	X5	Y5	Z5	X6	Y6	Z6	X7	Y7	Z7	X8	Y8	Z8	X9	Y9	Z9	X10	Y10	Z10	X11	Y11	Z11	X12	Y12	Z12	X13	Y13	Z13	X14	Y14	Z14	X15	Y15	Z15	X16	Y16	Z16	X17	Y17	Z17	X18	Y18	Z18	X19	Y19	Z19	X20	Y20	Z20	X21	Y21	Z21	X22	Y22	Z22	X23	Y23	Z23	X24	Y24	Z24	X25	Y25	Z25	X26	Y26	Z26	X27	Y27	Z27	X28	Y28	Z28	X29	Y29	Z29	X30	Y30	Z30	X31	Y31	Z31	X32	Y32	Z32	X33	Y33	Z33	X34	Y34	Z34	X35	Y35	Z35	X36	Y36	Z36	X37	Y37	Z37	X38	Y38	Z38	X39	Y39	Z39	X40	Y40	Z40	X41	Y41	Z41	X42	Y42	Z42	X43	Y43	Z43	X44	Y44	Z44	X45	Y45	Z45	X46	Y46	Z46	X47	Y47	Z47	X48	Y48	Z48	X49	Y49	Z49	X50	Y50	Z50	X51	Y51	Z51	X52	Y52	Z52	X53	Y53	Z53	

60	0.295	-105.988250732422	1607.711303710938	265.2131958007812	-155.9786376953127	1631.804321289062	330.4272766113281	-151.3106842041017	1630.228149414062	192.9170379638672	-331.3492431640627	1444.606811523438	258.9235534667968	-391.0281372070314	1276.16162109375	255.0620574951171	-399.7137451171876	1235.682006835938	233.5775451660155	-403.2921447753907	1228.213745117188	283.4513244628906	-394.548065185547	1171.574584960938	249.3744964599609	-368.9140014648439	1105.260009765625	251.3998260498046	-404.5669250488282	1068.925537109375	239.7950592041015	-400.9901428222657	1067.135864257812	290.1161499023437	-407.5134887695314	1006.891845703125	261.8789978027343	-391.8845214843751	956.8239135742188	233.5870361328124	-387.5881652832032	954.9378662109375	284.8462524414062	-402.427703857422	895.8626098632812	258.4301452636718	-257.6988220214844	675.619873046875	39.71358108520503	-283.7613220214844	609.539794921875	73.87905120849604	-244.1075744628907	616.9820556640625	45.75637817382808	-314.2190551757812	419.3595581054688	31.0199470520019	-387.2128601074219	412.0241088867188	62.23677444458001	-354.9838256835938	375.7699584960938	46.8919830322265	-516.5010986328125	304.7036437988281	165.4440307617187	-435.4214172363281	100.2359313964843	147.066177368164	-488.3793640136719	130.8058624267578	60.84981918334952	-278.8183898925782	685.1322021484375	426.2147827148437	-215.9134368896486	636.0889892578125	429.0187683105468	-262.954315185547	626.5590209960938	415.2707214355468	-273.2485656738282	335.3140869140625	406.8656616210937	-238.4692230224611	264.482177734375	401.9060974121093	-286.0249328613282	276.3630981445312	391.7525939941406	-321.0642089843751	63.90364456176756	281.0174255371093	-106.5513076782227	45.34878540039062	289.1010131835938	-160.9049530029298	37.68619918823241	389.8814392089843	-161.1309051513673	1342.675170898438	253.4175720214843	-145.2349243164064	1198.889404296875	249.979019165039	-257.6129760742189	1408.592651367188	82.68231964111324	-259.2733154296876	1256.435791015625	-20.09328842163091	-269.9717712402344	1195.109497070312	-41.61311721801763	-224.9361114501954	1200.730834960938	-19.24365997314457	-218.1332397460938	996.7415771484375	-74.53771972656254	-244.3957977294922	924.0228881835938	-58.9105491638184	-199.7268676757813	938.1204833984375	-76.07279968261723	-159.365951538086	842.3319702148438	-82.08415222167972	-116.2582931518555	851.0931396484375	-16.41236877441408	-241.7760162353517	1393.748657226562	425.1802368164062	-249.8101501464845	1242.8115234375	524.104736328125	-222.3574981689455	1182.258056640625	526.6157836914062	-270.4438781738283	1183.879028320312	545.4257202148438	-216.4747009277345	966.4942016601562	568.25732421875	-151.8145904541017	921.9329223632812	585.5003051757812	-196.7249298095705	906.9387817382812	568.0228271484375	-145.7830810546877	831.6748657226562	573.215576171875	-113.688201904297	824.6629638671875	497.9963073730469	
61	0.3	-99.66927337646499	1608.365112304688	265.201171875	-149.6630096435549	1632.522338867188	330.4071350097656	-144.972610473633	1630.863403320312	192.8878021240234	-325.0989379882814	1445.293090820312	259.1381225585937	-384.7226562500001	1276.809326171875	255.5430297851562	-393.402069091797	1236.324584960938	234.1060943603515	-396.9225463867189	1228.876831054688	283.9872131347656	-388.2053222656251	1172.222412109375	249.9282989501952	-362.5711975097657	1105.92041015625	251.9092254638671	-398.4515075683595	1069.59033203125	240.4324188232421	-394.8142089843751	1067.814575195312	290.7533569335937	-401.2645874023439	1007.55224609375	262.5227355957031	-385.4413452148439	957.6749877929688	233.4666595458984	-381.4211425781251	955.4877319335938	284.7414550781249	-396.2527770996095	896.5988159179688	257.8935241699218	-247.6805267333985	676.6600341796875	39.60300827026363	-273.5809936523438	610.239990234375	72.94184112548822	-233.5093841552735	618.2000732421875	45.45364761352535	-301.1632385253906	419.0469055175781	31.2799568176269	-374.2710266113281	410.7971496582031	61.97318649291985	-341.3673095703125	374.9616394042969	47.1954269409179	-503.0552062988282	301.0451965332031	166.0340728759765	-415.4946899414062	99.3383865356445	147.3269805908202	-469.4668273925781	128.24951171875	61.16273117065421	-275.6907043457032	686.2435302734375	426.3225708007812	-213.4186859130861	636.418701171875	429.4131164550781	-260.4835205078126	627.4751586914062	415.3510742187499	-273.1524658203126	335.9459533691406	406.6584167480468	-238.6030578613282	264.9555053710938	402.1521301269531	-286.0052185058594	277.0327758789062	391.4861450195312	-320.9114685058594	64.5386505126953	280.8692321777343	-106.493392944336	45.38174057006835	289.1803588867188	-160.8995208740235	37.64909362792968	389.9301757812499	-154.9213104248048	1343.42919921875	253.4054870605468	-138.9638824462892	1199.639282226562	250.114013671875	-251.7386627197267	1409.196655273438	82.75468444824214	-254.2977142333985	1256.838623046875	-19.9795475006104	-265.3835449218751	1195.516479492188	-41.31320953369146	-220.2080383300782	1200.999633789062	-19.20447921752934	-214.8052520751954	997.003173828125	-74.26277923583989	-241.5944213867188	924.4669799804688	-58.54615020751957	-196.8612823486329	938.2052001953125	-75.84914398193364	-157.3442687988282	842.0927734375	-82.03540802001956	-113.9404525756837	850.448974609375	-16.4834899902344	-235.2496032714845	1394.754028320312	425.2334289550781	-242.3470153808595	1244.053466796875	524.4655151367188	-214.5381164550783	1183.645751953125	526.9558715820312	-262.5671997070314	1185.048095703125	545.9706420898438	-206.5447235107424	967.9334106445312	568.66162109375	-141.2273864746095	924.146240234375	585.3989868164062	-186.0565643310549	908.6300659179688	568.1852416992188	-134.1313323974611	834.0244140625	572.8640747070312	-102.3736724853517	827.5468139648438	497.4700317382812	
62	0.305	-93.36293792724624	1608.986694335938	265.1537780761719	-143.356643676758	1633.206298828125	330.3526916503906	-138.6535644531251	1631.458984375	192.8247528076172	-318.8477783203127	1445.93603515625	259.3286132812499	-378.4185180664064	1277.41943359375	255.9781646728515	-387.0903625488282	1236.931274414062	234.5850982666015	-390.5622558593751	1229.50146484375	284.4720153808593	-381.8688354492189	1172.833251953125	250.4293212890624	-356.2416992187501	1106.540771484375	252.3669891357421	-392.3520507812501	1070.210815429688	240.9669494628905	-388.6845092773439	1068.443359375	291.2903442382812	-395.0398254394532	1008.164733886719	263.0525817871093	-379.0159912109376	958.4700317382812	233.3090667724609	-375.2784118652345	955.9945068359375	284.5985107421874	-390.1026916503907	897.28759765625	257.3309326171874	-237.7114562988282	677.70166015625	39.4836044311523	-263.5025329589844	610.9512329101562	71.94182586669918	-223.0068054199219	619.4267578125	45.13266754150386	-288.178955078125	418.5202331542969	31.53963851928706	-361.398193359375	409.2714233398438	61.63714599609369	-327.7651672363281	373.9024353027344	47.50021362304682	-489.4685974121094	296.9879760742187	166.6166076660155	-395.3483581542969	98.31507873535153	147.5772094726562	-450.3092956542969	125.4944992065429	61.47120285034171	-272.5471801757814	687.3285522460938	426.4065551757812	-210.9126434326173	636.7420043945312	429.8000183105468	-257.9879150390626	628.380615234375	415.4203186035156	-273.0005493164063	336.5927429199219	406.4414672851562	-238.6846618652345	265.4473571777344	402.3615112304687	-285.9382629394532	277.7178649902344	391.2140808105468	-320.7497253417969	65.20446014404295	280.7202453613281	-106.4293060302735	45.40871047973632	289.2525939941406	-160.8913116455079	37.61571502685546	389.9763793945312	-148.714065551758	1344.139892578125	253.3804321289062	-132.6958465576173	1200.341674804688	250.2376556396484	-245.8529357910157	1409.764892578125	82.80899047851558	-249.3386688232423	1257.22119140625	-19.89532089233403	-260.8341064453126	1195.90966796875	-41.03157424926763	-215.4941406250001	1201.24169921875	-19.20452308654789	-211.5143585205079	997.2389526367188	-74.01124572753911	-238.8050842285157	924.8875122070312	-58.17636871337895	-194.0181579589844	938.2691650390625	-75.6383438110352	-155.3224639892578	841.8501586914062	-81.9816818237305	-111.6178359985352	849.8253173828125	-16.5656433105469	-228.7287902832033	1395.713623046875	425.2616882324218	-234.9075012207033	1245.263549804688	524.8002319335938	-206.7534942626955	1185.002319335938	527.2801513671875	-254.7266235351564	1186.192138671875	546.4884643554688	-196.651092529297	969.356689453125	569.0386352539062	-130.6924743652345	926.3673706054688	585.2970581054688	-175.412811279297	910.3214111328125	568.3129272460938	-122.5027770996095	836.400390625	572.4837036132812	-91.05184936523452	830.4784545898438	496.932861328125	
63	0.31	-87.06730651855483	1609.574584960938	265.0720520019531	-137.0579986572267	1633.854614257812	330.2647399902344	-132.3516693115236	1632.0126953125	192.7287902832031	-312.593231201172	1446.534423828125	259.4947509765624	-372.1150207519532	1277.991577148438	256.3676147460937	-380.778289794922	1237.50146484375	235.0146026611328	-384.2117614746095	1230.087158203125	284.9057922363281	-375.5389709472657	1173.406372070312	250.8778686523437	-349.9264526367189	1107.12060546875	252.7728881835937	-386.2674255371095	1070.787719726562	241.3975982666015	-382.6009826660157	1069.022583007812	291.7261657714843	-388.8407287597657	1008.729919433594	263.4671020507812	-372.6096496582032	959.2073364257812	233.1197662353515	-369.1597900390626	956.4619750976562	284.4230651855468	-383.9739685058595	897.9285888671875	256.7550354003906	-227.8036193847657	678.7392578125	39.35862350463863	-253.5267028808594	611.664306640625	70.88660430908199	-212.6082305908203	620.6549682617188	44.79738235473629	-275.2698669433594	417.7947692871094	31.81063461303706	-348.5859985351562	407.4601135253906	61.26399612426751	-314.180419921875	372.6085510253906	47.81362915039057	-475.7279052734376	292.5451965332031	167.1830444335937	-374.9995727539062	97.18428039550778	147.8173828124999	-430.9093933105469	122.5610275268554	61.77085876464836	-269.3763427734376	688.3818359375	426.4690856933593	-208.3780975341798	637.0579223632812	430.1781616210937	-255.4534149169923	629.2708129882812	415.4815368652343	-272.7663269042969	337.2496337890625	406.2207641601562	-238.689422607422	265.9538879394531	402.5250854492187	-285.8030090332032	278.4139709472656	390.9449462890624	-320.5797729492188	65.89883422851561	280.5718688964843	-106.3601455688477	45.42853927612304	289.3173522949219	-160.8798217773438	37.5866584777832	390.0194702148437	-142.5072631835939	1344.804809570312	253.3431091308593	-126.4304275512696	1200.99365234375	250.3517608642578	-239.9538726806642	1410.293212890625	82.84533691406246	-244.3937530517579	1257.57958984375	-19.83915138244634	-256.3194885253907	1196.285278320312	-40.76665496826177	-210.7906799316407	1201.455322265625	-19.24394226074223	-208.2557983398438	997.4443359375	-73.78337097167973	-236.0234069824219	925.2805786132812	-57.80118942260746	-191.1937103271485	938.3074340820312	-75.44123077392581	-153.2967681884766	841.5984497070312	-81.92430114746097	-109.2848281860352	849.2166748046875	-16.66163444519045	-222.2130126953127	1396.624145507812	425.2659606933593	-227.4907379150392	1246.437622070312	525.10888671875	-199.0030059814455	1186.322631835938	527.5889892578125	-246.9215698242189	1187.306030273438	546.9793701171875	-186.7930297851564	970.7605590820312	569.3892211914062	-120.2087020874025	928.5909423828125	585.1928100585938	-164.794891357422	912.0098266601562	568.4072265625	-110.9008102416994	838.7976684570312	572.0743408203125	-79.72754669189467	833.4552612304688	496.3831787109375	
